# xmcd
#
# Track frame offsets:
#	150
#	17580
#	35072
#
# Disc length: 696 seconds
#
# Revision: 0
# Processed by: cddbd v1.4PL0 Copyright (c) Steve Scherf et al.
# Submitted via: audiograbber 1.81.02
#
DISCID=1c02b603
DTITLE=Johnny Rebel - Infidel Anthem
DYEAR=2001
DGENRE=Country
TTITLE0=Infidel Anthem (Radio - Clean version)
TTITLE1=F*** you, Osama Bin Laden (Infidel anthem) (XXX version)
TTITLE2=F*** you, Osama Bin Laden (Infidel anthem) (XXX - CD version)
EXTD=
EXTT0=Radio - Clean version
EXTT1=XXX version
EXTT2=XXX - CD version
PLAYORDER=
